<?xml version="1.0" standalone="no"?>
<!DOCTYPE svg PUBLIC "-//W3C//DTD SVG 1.0//EN" "http://www.w3.org/TR/2001/REC-SVG-20010904/DTD/svg10.dtd">
<svg xmlns="http://www.w3.org/2000/svg" xmlns:xlink="http://www.w3.org/1999/xlink" id="body_1" width="53" height="40">

<g transform="matrix(0.51887405 0 0 0.51887405 -30.622847 -23.349333)">
	<g>
        <path d="M139.19968 46.483948C 133.79512 46.316727 130.99477 48.84615 130.3185 49.08075C 130.93373 47.91552 131.34544 47.18139 132.91882 45.54309C 127.567184 45.48699 122.60501 46.645172 118.819 50.18706C 113.74112 54.93721 114.13588 58.872803 114.12565 58.8534C 114.12665 58.8554 113.324486 56.28694 113.083885 53.53986C 107.557976 61.18914 105.376045 71.32445 109.565636 78.88518C 112.16631 72.611374 116.29593 67.204346 121.617935 62.940678C 121.79327 58.466747 123.59313 54.686737 126.437935 51.89591C 123.87077 54.96861 122.73801 58.46922 122.8523 61.99735C 129.0425 57.37914 136.62968 54.301147 144.96371 53.29115C 138.92981 54.39993 133.4628 56.804817 128.68442 60.08495C 131.67526 61.4509 135.09087 61.66504 138.68073 60.41479C 135.23903 62.02769 131.41844 62.291573 127.55341 60.88681C 124.123 63.39894 121.072174 66.36721 118.44998 69.62935C 123.10523 71.15123 128.19724 70.83655 133.26453 68.25387C 128.6128 71.25848 123.14792 72.38525 117.30839 71.10572C 114.98041 74.22992 113.02919 77.58555 111.50413 81.04383C 113.382675 82.42883 121.53502 86.77435 135.51878 76.4623C 133.54428 75.878815 131.94408 75.053665 131.94337 75.05225C 131.98787 75.07205 133.38448 75.200424 137.46893 72.753555C 141.07997 70.64182 144.18617 66.81666 146.47923 63.839214C 144.52872 63.120605 143.00966 62.366364 143.00896 62.364605C 143.00795 62.363605 145.52956 62.534286 149.44116 59.539906C 152.93013 56.869026 156.82515 52.997295 156.83716 53.106655C 156.86186 53.129955 148.2449 46.763355 139.19968 46.483955" stroke="none" fill="#4FA52B" fill-rule="nonzero" />
        <path d="M76.90892 60.39415C 81.01041 59.20187 83.62202 60.57837 84.18329 60.62363C 83.49581 59.85657 83.04422 59.37815 81.5362 58.43957C 85.61753 57.342182 89.62709 57.24689 93.18141 59.20068C 97.94861 61.82108 98.37924 64.89886 98.38368 64.88219C 98.38287 64.884186 98.51835 62.767998 98.19094 60.626408C 103.84037 65.368546 107.39591 72.664375 105.59999 79.25351C 102.44364 74.98344 98.27924 71.67578 93.41609 69.47424C 92.44918 66.098694 90.369 63.571594 87.674324 62.0049C 90.20933 63.84117 91.72702 66.28648 92.29676 68.9982C 86.70379 66.69781 80.32978 65.84657 73.76949 66.719246C 78.589516 66.37542 88.79929 67.0738 97.083725 73.94838C 93.808014 76.02605 89.85612 76.78993 85.50101 75.81959C 89.617004 77.19292 94.00519 76.97535 98.23167 74.84885C 100.59329 76.77167 102.71017 78.94501 104.520195 81.28075C 103.3416 82.70688 97.917564 87.62569 85.30545 82.520676C 86.70662 81.686905 87.77634 80.74236 87.77674 80.74117C 87.746544 80.76498 86.70259 81.13821 83.12366 80.07813C 79.96972 79.18005 76.88272 76.87608 74.574715 75.058075C 75.932335 74.12624 76.953674 73.25198 76.953674 73.2504C 76.95406 73.24959 75.05817 73.87652 71.50989 72.36501C 68.344666 71.016304 64.64558 68.832634 64.65687 68.918396C 64.642365 68.940994 70.04542 62.389626 76.90893 60.394146" stroke="none" fill="#E47B19" fill-rule="nonzero" />
        <path d="M106.35028 116.78676C 103.35939 114.0036 103.23137 111.1697 102.99563 110.68548C 102.692345 111.63276 102.514435 112.24205 102.46853 113.950066C 99.56593 111.13644 97.53256 107.88377 97.42573 103.98627C 97.2827 98.76002 99.63347 96.87469 99.61758 96.879555C 99.619576 96.879555 97.79303 97.82024 96.170654 99.15473C 97.362595 92.146484 101.699936 85.59194 108.057846 83.79309C 106.043465 88.51463 105.32079 93.58698 105.859375 98.68461C 103.522285 101.15936 102.43365 104.12773 102.44335 107.12493C 102.7356 104.12552 104.0304 101.66008 106.00902 99.8426C 106.82087 105.59001 109.21976 111.25976 113.143005 116.22528C 110.507935 112.4288 106.112755 103.67846 107.79472 93.44062C 111.1198 95.10421 113.68158 97.97678 114.99713 102.04415C 114.133644 97.97323 111.813774 94.46955 107.98454 92.04802C 108.433075 89.14839 109.210045 86.32549 110.27087 83.67378C 112.03185 83.93501 118.768524 85.95295 120.66769 98.87222C 119.291214 98.13378 117.984055 97.72311 117.98273 97.72354C 118.017624 97.73644 118.836945 98.41008 119.69913 101.88272C 120.4889 104.925644 120.07702 108.61209 119.68893 111.41583C 118.25153 110.761665 117.02649 110.35595 117.025604 110.356834C 117.024605 110.356834 118.470055 111.60574 118.94197 115.277824C 119.36268 118.55367 119.348564 122.68398 119.41433 122.632C 119.44033 122.63284 111.35593 121.44354 106.35022 116.78675" stroke="none" fill="#E33F3B" fill-rule="nonzero" />
	</g>
</g>
</svg>