<?xml version="1.0" encoding="UTF-8" standalone="no"?>
<svg
   xmlns:dc="http://purl.org/dc/elements/1.1/"
   xmlns:cc="http://creativecommons.org/ns#"
   xmlns:rdf="http://www.w3.org/1999/02/22-rdf-syntax-ns#"
   xmlns:svg="http://www.w3.org/2000/svg"
   xmlns="http://www.w3.org/2000/svg"
   xmlns:sodipodi="http://sodipodi.sourceforge.net/DTD/sodipodi-0.dtd"
   xmlns:inkscape="http://www.inkscape.org/namespaces/inkscape"
   width="210mm"
   height="297mm"
   viewBox="0 0 210 297"
   version="1.1"
   id="svg2163"
   inkscape:version="1.0.2 (e86c870879, 2021-01-15)"
   sodipodi:docname="cropped.svg">
  <defs
     id="defs2157" />
  <sodipodi:namedview
     id="base"
     pagecolor="#ffffff"
     bordercolor="#666666"
     borderopacity="1.0"
     inkscape:pageopacity="0.0"
     inkscape:pageshadow="2"
     inkscape:zoom="1.5099157"
     inkscape:cx="386.95033"
     inkscape:cy="314.49555"
     inkscape:document-units="mm"
     inkscape:current-layer="layer1"
     inkscape:document-rotation="0"
     showgrid="false"
     inkscape:window-width="1245"
     inkscape:window-height="846"
     inkscape:window-x="60"
     inkscape:window-y="0"
     inkscape:window-maximized="0" />
  <metadata
     id="metadata2160">
    <rdf:RDF>
      <cc:Work
         rdf:about="">
        <dc:format>image/svg+xml</dc:format>
        <dc:type
           rdf:resource="http://purl.org/dc/dcmitype/StillImage" />
        <dc:title></dc:title>
      </cc:Work>
    </rdf:RDF>
  </metadata>
  <g
     inkscape:label="Ebene 1"
     inkscape:groupmode="layer"
     id="layer1">
    <path
       d="m 139.19968,46.483949 c -5.40456,-0.16722 -8.20491,2.3622 -8.88118,2.5968 0.61524,-1.16523 1.02694,-1.89936 2.60032,-3.53766 -5.35164,-0.0561 -10.31381,1.10208 -14.09982,4.64397 -5.07788,4.75015 -4.68312,8.68574 -4.69335,8.66634 0.001,0.002 -0.80116,-2.56646 -1.04176,-5.31354 -5.52591,7.64928 -7.70784,17.78459 -3.51825,25.34532 2.60068,-6.2738 6.73029,-11.68083 12.0523,-15.9445 0.17533,-4.47393 1.9752,-8.25394 4.82,-11.04477 -2.56716,3.0727 -3.69993,6.57331 -3.58563,10.10144 6.19019,-4.61821 13.77738,-7.6962 22.11141,-8.7062 -6.03391,1.10878 -11.50091,3.51367 -16.27929,6.7938 2.99085,1.36595 6.40645,1.58009 9.99631,0.32984 -3.4417,1.6129 -7.26228,1.87678 -11.12731,0.47202 -3.43041,2.51213 -6.48124,5.4804 -9.10343,8.74254 4.65525,1.52188 9.74725,1.2072 14.81455,-1.37548 -4.65173,3.00461 -10.11661,4.13138 -15.95614,2.85185 -2.32798,3.1242 -4.2792,6.47983 -5.80426,9.93811 1.87855,1.385 10.03089,5.73052 24.01465,-4.58153 -1.9745,-0.58349 -3.5747,-1.40864 -3.57541,-1.41005 0.0445,0.0198 1.4411,0.14817 5.52556,-2.2987 3.61104,-2.11173 6.71724,-5.9369 9.0103,-8.91434 -1.95051,-0.71861 -3.46957,-1.47285 -3.47028,-1.47461 -0.001,-10e-4 2.5206,0.16968 6.4322,-2.8247 3.48897,-2.67088 7.38399,-6.54261 7.39599,-6.43325 0.0247,0.0233 -8.59226,-6.3433 -17.63748,-6.6227"
       style="fill:#000000;fill-opacity:1;fill-rule:nonzero;stroke:none;stroke-width:0.0352778"
       id="path1983" />
    <path
       d="m 76.908921,60.394149 c 4.10149,-1.19228 6.7131,0.18422 7.27437,0.22948 -0.68748,-0.76706 -1.13907,-1.24548 -2.64709,-2.18406 4.08133,-1.09739 8.09089,-1.19268 11.64521,0.76111 4.7672,2.6204 5.19783,5.69818 5.20227,5.68151 -8.1e-4,0.002 0.13467,-2.11419 -0.19274,-4.25578 5.649429,4.74214 9.204969,12.03797 7.409049,18.6271 -3.15635,-4.27007 -7.320749,-7.57773 -12.183899,-9.77927 -0.96691,-3.37555 -3.04709,-5.90265 -5.74177,-7.46934 2.535,1.83627 4.0527,4.28158 4.62244,6.9933 -5.59297,-2.30039 -11.96698,-3.15163 -18.52727,-2.27895 4.82002,-0.34383 15.0298,0.35455 23.31423,7.22913 -3.27571,2.07767 -7.22761,2.84155 -11.58272,1.87121 4.116,1.37333 8.50418,1.15576 12.73066,-0.97074 2.361629,1.92282 4.478499,4.09616 6.288529,6.4319 -1.1786,1.42613 -6.602629,6.34494 -19.214749,1.23993 1.40117,-0.83377 2.47089,-1.77831 2.47129,-1.7795 -0.0302,0.0238 -1.07415,0.39703 -4.65308,-0.66304 -3.15394,-0.89808 -6.24094,-3.20205 -8.54894,-5.02006 1.35762,-0.93183 2.37896,-1.80609 2.37896,-1.80768 3.9e-4,-8.1e-4 -1.89551,0.62612 -5.44379,-0.88538 -3.16522,-1.34871 -6.86431,-3.53238 -6.85302,-3.44662 -0.0145,0.0226 5.38855,-6.52877 12.25206,-8.52425"
       style="fill:#000000;fill-opacity:1;fill-rule:nonzero;stroke:none;stroke-width:0.040011"
       id="path1985" />
    <path
       d="m 106.35028,116.78676 c -2.99089,-2.78316 -3.11891,-5.61706 -3.35465,-6.10128 -0.30328,0.94728 -0.48119,1.55657 -0.5271,3.26459 -2.902599,-2.81363 -4.935969,-6.06629 -5.042799,-9.9638 -0.14303,-5.226251 2.20774,-7.111581 2.19185,-7.106711 0.002,0 -1.82455,0.94068 -3.44692,2.27518 1.19194,-7.00825 5.529279,-13.56279 11.887189,-15.36164 -2.01438,4.72154 -2.73705,9.79389 -2.19847,14.89152 -2.33709,2.474751 -3.42573,5.443121 -3.41602,8.440321 0.29225,-2.99941 1.58705,-5.46485 3.56567,-7.282331 0.81185,5.747411 3.21074,11.417161 7.13399,16.382681 -2.63507,-3.79648 -7.03025,-12.54682 -5.34828,-22.784661 3.32507,1.66359 5.88686,4.53616 7.20241,8.603531 -0.86349,-4.070921 -3.18336,-7.574601 -7.01259,-9.996131 0.44853,-2.89963 1.2255,-5.72253 2.28632,-8.37424 1.76099,0.26123 8.49766,2.27917 10.39682,15.19844 -1.37647,-0.73844 -2.68363,-1.14912 -2.68496,-1.14868 0.0349,0.0129 0.85422,0.68654 1.7164,4.159181 0.78977,3.04292 0.37789,6.72937 -0.0102,9.53311 -1.43739,-0.65417 -2.66244,-1.05988 -2.66332,-1.059 -0.001,0 1.44445,1.24891 1.91637,4.92099 0.42071,3.27585 0.40659,7.40616 0.47236,7.35418 0.026,8.4e-4 -8.0584,-1.18846 -13.06411,-5.84525"
       style="fill:#000000;fill-opacity:1;fill-rule:nonzero;stroke:none;stroke-width:0.0442482"
       id="path1987" />
  </g>
</svg>
