<svg id="Magnus_Mage_Original_Logo-02" xmlns="http://www.w3.org/2000/svg" xmlns:xlink="http://www.w3.org/1999/xlink" width="34.511" height="37.695" viewBox="0 0 34.511 37.695">
  <defs>
    <linearGradient id="linear-gradient" x1="0.5" y1="-0.028" x2="0.5" y2="1.046" gradientUnits="objectBoundingBox">
      <stop offset="0" stop-color="#4265ff"/>
      <stop offset="1" stop-color="#3f6efd"/>
    </linearGradient>
    <linearGradient id="linear-gradient-2" x1="0.037" y1="1.01" x2="0.919" y2="0.053" gradientUnits="objectBoundingBox">
      <stop offset="0" stop-color="#59eefd"/>
      <stop offset="1" stop-color="#416efe"/>
    </linearGradient>
    <linearGradient id="linear-gradient-3" x1="0.949" y1="0.984" x2="0.056" y2="0.038" xlink:href="#linear-gradient-2"/>
    <radialGradient id="radial-gradient" cx="0.503" cy="0.497" r="0.503" gradientTransform="translate(0.003) scale(0.994 1)" gradientUnits="objectBoundingBox">
      <stop offset="0.304" stop-color="#406afe"/>
      <stop offset="1" stop-color="#4688fe"/>
    </radialGradient>
    <radialGradient id="radial-gradient-2" cx="0.503" cy="0.497" r="0.503" xlink:href="#radial-gradient"/>
    <radialGradient id="radial-gradient-3" cx="0.503" cy="0.5" r="0.5" gradientTransform="matrix(1, 0, 0, 1, 0, 0)" xlink:href="#radial-gradient"/>
    <radialGradient id="radial-gradient-4" cx="0.497" cy="0.497" r="0.503" gradientTransform="translate(0.003) scale(0.995 1)" xlink:href="#radial-gradient"/>
    <radialGradient id="radial-gradient-5" cx="0.505" cy="0.5" r="0.5" gradientTransform="translate(0)" xlink:href="#radial-gradient"/>
    <radialGradient id="radial-gradient-6" cx="0.505" cy="0.5" r="0.5" gradientTransform="translate(0)" xlink:href="#radial-gradient"/>
    <radialGradient id="radial-gradient-7" cx="0.503" cy="0.497" r="0.503" gradientTransform="translate(0.003) scale(0.993 1)" xlink:href="#radial-gradient"/>
  </defs>
  <g id="Group_4804" data-name="Group 4804" transform="translate(1.443 0)">
    <path id="Path_53613" data-name="Path 53613" d="M104.325,43.763l-2.547,1.465a2.419,2.419,0,0,0-1.231-.318,2.5,2.5,0,0,0-2.5,2.483l-8.214,4.754a2.552,2.552,0,0,0-1.21-.3,2.423,2.423,0,0,0-1.295.361l-8.15-4.691h0v-.191a2.5,2.5,0,0,0-2.5-2.4h-.127a2.4,2.4,0,0,0-1.21.382L72.7,43.784l.064-.021,13.372-7.726a4.8,4.8,0,0,1,4.776,0l13.372,7.726h.042Z" transform="translate(-72.7 -35.4)" fill="url(#linear-gradient)"/>
  </g>
  <g id="Group_4805" data-name="Group 4805" transform="translate(17.723 10.273)">
    <path id="Path_53614" data-name="Path 53614" d="M166.168,83.8l-2.7,1.465a1.121,1.121,0,0,1,.021.276,2.52,2.52,0,0,1-1.613,2.335v9.891a2.492,2.492,0,1,1-1.91.042V87.833a2.406,2.406,0,0,1-.552-.34L156.638,89v6.091a1.778,1.778,0,1,1-1.507.085V89.828l-3.651,2a2.191,2.191,0,0,1,.085.637,2.5,2.5,0,0,1-2.165,2.483V111.2l.042.021,14.221-7.747a4.7,4.7,0,0,0,2.526-4.139L166.168,83.8Z" transform="translate(-149.4 -83.8)" fill="url(#linear-gradient-2)"/>
  </g>
  <g id="Group_4806" data-name="Group 4806" transform="translate(0 10.273)">
    <path id="Path_53615" data-name="Path 53615" d="M80.757,92.46a2.423,2.423,0,0,1,.106-.7L77.17,89.785v5.391a1.787,1.787,0,1,1-1.507-.085V88.979l-2.78-1.486a2.066,2.066,0,0,1-.509.318V97.66a2.586,2.586,0,0,1-1.061,4.945A2.587,2.587,0,0,1,70.4,97.6V87.875a2.494,2.494,0,0,1-1.613-2.229v-.34L65.921,83.8H65.9V99.336a4.685,4.685,0,0,0,2.589,4.139l14.581,7.747.042-.021V94.964A2.526,2.526,0,0,1,80.757,92.46Z" transform="translate(-65.9 -83.8)" fill="url(#linear-gradient-3)"/>
  </g>
  <g id="Group_4807" data-name="Group 4807" transform="translate(15.494 17.086)">
    <path id="Path_53616" data-name="Path 53616" d="M142.636,117.747a1.939,1.939,0,0,1-1.868,1.868h-.149a1.873,1.873,0,0,1-1.719-1.868,1.241,1.241,0,0,1,.042-.4,1.845,1.845,0,0,1,1.189-1.337h0a1.609,1.609,0,0,1,.637-.106,2.093,2.093,0,0,1,.509.064,1.886,1.886,0,0,1,1.337,1.464A1.607,1.607,0,0,1,142.636,117.747Z" transform="translate(-138.9 -115.9)" fill="url(#radial-gradient)"/>
  </g>
  <g id="Group_4808" data-name="Group 4808" transform="translate(27.422 10.167)">
    <path id="Path_53617" data-name="Path 53617" d="M198.836,85.147v.064a1.826,1.826,0,0,1-.976,1.571,1.861,1.861,0,0,1-.891.233,1.606,1.606,0,0,1-.318-.021,2.074,2.074,0,0,1-.637-.233,1.854,1.854,0,0,1-.913-1.592,2.876,2.876,0,0,1,.042-.424,1.869,1.869,0,0,1,1.825-1.443,1.582,1.582,0,0,1,.552.085h0A1.8,1.8,0,0,1,198.836,85.147Z" transform="translate(-195.1 -83.3)" fill="url(#radial-gradient-2)"/>
  </g>
  <g id="Group_4809" data-name="Group 4809" transform="translate(27.422 24.706)">
    <path id="Path_53618" data-name="Path 53618" d="M198.836,153.668a1.868,1.868,0,1,1-3.736,0,1.847,1.847,0,0,1,.849-1.549,1.867,1.867,0,0,1,1.019-.318,1.8,1.8,0,0,1,.891.233A1.843,1.843,0,0,1,198.836,153.668Z" transform="translate(-195.1 -151.8)" fill="url(#radial-gradient-3)"/>
  </g>
  <g id="Group_4810" data-name="Group 4810" transform="translate(3.481 24.578)">
    <path id="Path_53619" data-name="Path 53619" d="M86.205,153.131a1.953,1.953,0,1,1-2.865-1.719,1.868,1.868,0,0,1,.913-.212,1.839,1.839,0,0,1,1.061.318A1.864,1.864,0,0,1,86.205,153.131Z" transform="translate(-82.3 -151.2)" fill="url(#radial-gradient-4)"/>
  </g>
  <g id="Group_4811" data-name="Group 4811" transform="translate(9.275 22.074)">
    <path id="Path_53620" data-name="Path 53620" d="M111.892,140.546a1.146,1.146,0,1,1-1.443-1.1,1.433,1.433,0,0,1,.3-.042,1.139,1.139,0,0,1,.849.382A1.075,1.075,0,0,1,111.892,140.546Z" transform="translate(-109.6 -139.4)" fill="url(#radial-gradient-5)"/>
  </g>
  <g id="Group_4812" data-name="Group 4812" transform="translate(23.135 22.074)">
    <path id="Path_53621" data-name="Path 53621" d="M177.192,140.546a1.146,1.146,0,0,1-2.292,0,1.075,1.075,0,0,1,.3-.764,1.139,1.139,0,0,1,.849-.382,1.434,1.434,0,0,1,.3.042A1.117,1.117,0,0,1,177.192,140.546Z" transform="translate(-174.9 -139.4)" fill="url(#radial-gradient-6)"/>
  </g>
  <g id="Group_4813" data-name="Group 4813" transform="translate(3.543 10.167)">
    <path id="Path_53622" data-name="Path 53622" d="M86.329,85.062a1.805,1.805,0,0,1-.488,1.337,1.535,1.535,0,0,1-.467.361.991.991,0,0,1-.212.106,2.011,2.011,0,0,1-.616.149h-.085a1.881,1.881,0,0,1-.913-.233,1.861,1.861,0,0,1-.955-1.486v-.042a1.805,1.805,0,0,1,.488-1.337,2.071,2.071,0,0,1,.722-.488,1.86,1.86,0,0,1,.573-.127h.085a1.872,1.872,0,0,1,1.847,1.571h0A.527.527,0,0,1,86.329,85.062Z" transform="translate(-82.592 -83.3)" fill="url(#radial-gradient-7)"/>
  </g>
</svg>
